<?xml version="1.0" encoding="UTF-8"?>
<svg xmlns="http://www.w3.org/2000/svg" version="1.1" width="500" height="500" viewBox="0 0 500 500"><rect x="0" y="0" width="500" height="500" fill="#ffffff"/><g transform="scale(17.241)"><g transform="translate(0,0)"><path fill-rule="evenodd" d="M8 0L8 1L10 1L10 0ZM15 0L15 1L14 1L14 2L11 2L11 4L10 4L10 3L9 3L9 2L8 2L8 5L9 5L9 6L8 6L8 7L9 7L9 8L8 8L8 9L7 9L7 8L6 8L6 9L7 9L7 10L6 10L6 11L2 11L2 10L0 10L0 11L1 11L1 13L3 13L3 12L4 12L4 14L3 14L3 15L2 15L2 14L0 14L0 17L3 17L3 18L2 18L2 19L3 19L3 20L1 20L1 21L4 21L4 20L5 20L5 19L7 19L7 20L6 20L6 21L7 21L7 20L8 20L8 22L9 22L9 23L10 23L10 24L11 24L11 23L14 23L14 22L15 22L15 21L17 21L17 22L18 22L18 24L17 24L17 23L15 23L15 24L14 24L14 26L13 26L13 24L12 24L12 25L11 25L11 28L10 28L10 27L9 27L9 26L10 26L10 25L8 25L8 29L11 29L11 28L12 28L12 29L13 29L13 28L12 28L12 26L13 26L13 27L14 27L14 29L15 29L15 28L16 28L16 29L17 29L17 27L18 27L18 26L19 26L19 28L18 28L18 29L19 29L19 28L20 28L20 29L21 29L21 27L22 27L22 25L23 25L23 28L24 28L24 29L25 29L25 28L26 28L26 25L28 25L28 27L27 27L27 29L28 29L28 27L29 27L29 25L28 25L28 24L29 24L29 23L28 23L28 22L29 22L29 21L27 21L27 18L28 18L28 15L29 15L29 13L27 13L27 12L26 12L26 11L28 11L28 12L29 12L29 11L28 11L28 10L29 10L29 8L28 8L28 10L26 10L26 11L24 11L24 10L25 10L25 9L27 9L27 8L24 8L24 9L22 9L22 8L21 8L21 6L20 6L20 5L21 5L21 4L20 4L20 3L21 3L21 2L20 2L20 3L19 3L19 2L18 2L18 1L21 1L21 0L18 0L18 1L17 1L17 0ZM16 1L16 3L12 3L12 5L10 5L10 6L9 6L9 7L10 7L10 8L9 8L9 9L8 9L8 11L9 11L9 12L10 12L10 13L9 13L9 14L7 14L7 13L8 13L8 12L7 12L7 11L6 11L6 12L7 12L7 13L6 13L6 14L4 14L4 17L5 17L5 15L6 15L6 16L8 16L8 15L9 15L9 16L12 16L12 17L11 17L11 18L12 18L12 17L14 17L14 18L13 18L13 20L14 20L14 21L15 21L15 17L16 17L16 16L15 16L15 15L16 15L16 14L17 14L17 19L18 19L18 21L20 21L20 19L21 19L21 16L22 16L22 19L23 19L23 16L24 16L24 15L25 15L25 17L24 17L24 20L26 20L26 19L25 19L25 18L26 18L26 17L27 17L27 15L25 15L25 14L27 14L27 13L25 13L25 12L22 12L22 10L21 10L21 9L20 9L20 10L19 10L19 11L17 11L17 10L18 10L18 9L17 9L17 10L16 10L16 12L12 12L12 14L11 14L11 15L9 15L9 14L10 14L10 13L11 13L11 11L14 11L14 10L15 10L15 9L16 9L16 8L17 8L17 7L18 7L18 5L17 5L17 4L16 4L16 3L18 3L18 4L19 4L19 3L18 3L18 2L17 2L17 1ZM13 4L13 5L12 5L12 7L11 7L11 6L10 6L10 7L11 7L11 8L12 8L12 7L13 7L13 9L15 9L15 5L14 5L14 4ZM13 5L13 7L14 7L14 5ZM16 6L16 7L17 7L17 6ZM19 6L19 8L20 8L20 6ZM0 8L0 9L3 9L3 10L5 10L5 9L4 9L4 8ZM9 9L9 10L10 10L10 9ZM20 10L20 11L19 11L19 12L20 12L20 13L19 13L19 15L20 15L20 14L21 14L21 15L22 15L22 16L23 16L23 15L24 15L24 14L23 14L23 13L22 13L22 14L21 14L21 12L20 12L20 11L21 11L21 10ZM17 12L17 13L18 13L18 12ZM13 13L13 14L12 14L12 16L14 16L14 15L15 15L15 14L14 14L14 13ZM6 14L6 15L7 15L7 14ZM13 14L13 15L14 15L14 14ZM22 14L22 15L23 15L23 14ZM1 15L1 16L2 16L2 15ZM18 16L18 18L19 18L19 16ZM6 17L6 18L7 18L7 17ZM8 17L8 20L9 20L9 21L11 21L11 22L10 22L10 23L11 23L11 22L12 22L12 21L11 21L11 20L12 20L12 19L10 19L10 18L9 18L9 17ZM0 18L0 19L1 19L1 18ZM3 18L3 19L4 19L4 18ZM9 19L9 20L10 20L10 19ZM21 21L21 24L24 24L24 21ZM22 22L22 23L23 23L23 22ZM26 22L26 23L25 23L25 25L26 25L26 24L27 24L27 22ZM16 24L16 25L17 25L17 24ZM18 24L18 25L19 25L19 26L21 26L21 25L20 25L20 24ZM14 26L14 27L17 27L17 26ZM24 26L24 28L25 28L25 26ZM0 0L0 7L7 7L7 0ZM1 1L1 6L6 6L6 1ZM2 2L2 5L5 5L5 2ZM22 0L22 7L29 7L29 0ZM23 1L23 6L28 6L28 1ZM24 2L24 5L27 5L27 2ZM0 22L0 29L7 29L7 22ZM1 23L1 28L6 28L6 23ZM2 24L2 27L5 27L5 24Z" fill="#000000"/></g></g></svg>
